# xmcd
# 
# Track frame offsets:
#     150
#     4282
#     20375
#     34100
#     47660
#     49460
#     60635
#     72277
#     86977
#     100247
#     112132
#     128525
#     140617
#     141537
#     161255
#     175692
#     188507
#     193752
#     202500
#     214297
#     215897
#     227142
#     228975
#     236575
#     252052
#     263297
#     277707
#     291620
#     296302
#     314842
# 
# Disc length: 4445
# 
# Revision: 5
# Processed by: cddbd v1.5.2PL0 Copyright (c) Steve Scherf et al.
# Submitted via: fre:ac v1.0.17
# 
DISCID=c1115b1e
DTITLE=Various Artist - Mutilation Mix
DYEAR=1997
DGENRE=Hip-Hop
TTITLE0=Nate The Mack - Request 1
TTITLE1=Insane Clown Posse - Cemetery Girl
TTITLE2=Insane Clown Posse - Hey Vato
TTITLE3=Insane Clown Posse - Wagon Wagon
TTITLE4=Esham - Request 2
TTITLE5=Insane Clown Posse - Psychopathic
TTITLE6=Shaggy 2 Dope - Southwest Strangla
TTITLE7=Insane Clown Posse - Never Had It Made
TTITLE8=Insane Clown Posse - Chicken Huntin' (Slaughter House Mix)
TTITLE9=Insane Clown Posse - I Stuck Her With My Wang
TTITLE10=Insane Clown Posse - The Loons
TTITLE11=Insane Clown Posse - Red Neck Hoe
TTITLE12=Charm Farm - Request 3
TTITLE13=Insane Clown Posse - I'm Coming Home
TTITLE14=Insane Clown Posse - Superballs
TTITLE15=Insane Clown Posse - The Stalker
TTITLE16=Insane Clown Posse - Wizard Of The Hood
TTITLE17=Insane Clown Posse - Skitzofrantic
TTITLE18=Insane Clown Posse - 3 Rings
TTITLE19=Harm's Way - Request 4
TTITLE20=Insane Clown Posse - Murder Go Round
TTITLE21=Daddy X - Request 5
TTITLE22=Insane Clown Posse - Southwest Song
TTITLE23=Shaggy 2 Dope/Violent J - Fuck Off
TTITLE24=Insane Clown Posse - Dead Body Man
TTITLE25=Insane Clown Posse - Cotton Candy
TTITLE26=Insane Clown Posse - 17 Dead
TTITLE27=2 Dog - Request 6
TTITLE28=Insane Clown Posse - The Neden Game
TTITLE29=Insane Clown Posse - House Of Wonders
EXTD=
EXTT0=
EXTT1=
EXTT2=
EXTT3=
EXTT4=
EXTT5=
EXTT6=
EXTT7=
EXTT8=
EXTT9=
EXTT10=
EXTT11=
EXTT12=
EXTT13=
EXTT14=
EXTT15=
EXTT16=
EXTT17=
EXTT18=
EXTT19=
EXTT20=
EXTT21=
EXTT22=
EXTT23=
EXTT24=
EXTT25=
EXTT26=
EXTT27=
EXTT28=
EXTT29=
PLAYORDER=
